<?xml version="1.0" encoding="UTF-8"?>
<svg xmlns="http://www.w3.org/2000/svg" xmlns:xlink="http://www.w3.org/1999/xlink" width="1642pt" height="2003pt" viewBox="0 0 1642 2003" version="1.1">
<g id="surface1">
<style>
      path {
        fill: #000;
      }

      @media (prefers-color-scheme: dark) {
        path {
          fill: #fff;
        }
      }
    </style>
<path style=" stroke:none;fill-rule:nonzero;fill-opacity:1;" d="M 525 262.5 C 525 407.476562 407.476562 525 262.5 525 C 117.523438 525 0 407.476562 0 262.5 C 0 117.523438 117.523438 0 262.5 0 C 407.476562 0 525 117.523438 525 262.5 Z M 525 262.5 "/>
<path style=" stroke:none;fill-rule:nonzero;fill-opacity:1;" d="M 1642 262.5 C 1642 407.476562 1524.476562 525 1379.5 525 C 1234.523438 525 1117 407.476562 1117 262.5 C 1117 117.523438 1234.523438 0 1379.5 0 C 1524.476562 0 1642 117.523438 1642 262.5 Z M 1642 262.5 "/>
<path style=" stroke:none;fill-rule:nonzero;fill-opacity:1;" d="M 525 990.5 C 525 1135.476562 407.476562 1253 262.5 1253 C 117.523438 1253 0 1135.476562 0 990.5 C 0 845.523438 117.523438 728 262.5 728 C 407.476562 728 525 845.523438 525 990.5 Z M 525 990.5 "/>
<path style=" stroke:none;fill-rule:nonzero;fill-opacity:1;" d="M 1642 990.5 C 1642 1135.476562 1524.476562 1253 1379.5 1253 C 1234.523438 1253 1117 1135.476562 1117 990.5 C 1117 845.523438 1234.523438 728 1379.5 728 C 1524.476562 728 1642 845.523438 1642 990.5 Z M 1642 990.5 "/>
<path style=" stroke:none;fill-rule:nonzero;fill-opacity:1;" d="M 525 1740.5 C 525 1885.476562 407.476562 2003 262.5 2003 C 117.523438 2003 0 1885.476562 0 1740.5 C 0 1595.523438 117.523438 1478 262.5 1478 C 407.476562 1478 525 1595.523438 525 1740.5 Z M 525 1740.5 "/>
<path style=" stroke:none;fill-rule:nonzero;fill-opacity:1;" d="M 1642 1740.5 C 1642 1885.476562 1524.476562 2003 1379.5 2003 C 1234.523438 2003 1117 1885.476562 1117 1740.5 C 1117 1595.523438 1234.523438 1478 1379.5 1478 C 1524.476562 1478 1642 1595.523438 1642 1740.5 Z M 1642 1740.5 "/>
</g>
</svg>